<?xml version="1.0" encoding="UTF-8"?>
<svg xmlns="http://www.w3.org/2000/svg" viewBox="0 0 64 64" width="64" height="64">
  <defs>
    <radialGradient id="bg" cx="38%" cy="32%" r="65%">
      <stop offset="0%" stop-color="#ffffff"/>
      <stop offset="100%" stop-color="#d0d0d0"/>
    </radialGradient>
    <clipPath id="ball">
      <circle cx="32" cy="32" r="30"/>
    </clipPath>
  </defs>

  <!-- Ball base -->
  <circle cx="32" cy="32" r="30" fill="url(#bg)"/>

  <g clip-path="url(#ball)">
    <!-- Blue panels (top-left, bottom-right) -->
    <path d="M32 2 C30 14, 30 24, 32 32 C24 24, 14 18, 2 20 L2 2 Z" fill="#003DA5"/>
    <path d="M32 62 C34 50, 34 40, 32 32 C40 40, 50 46, 62 44 L62 62 Z" fill="#003DA5"/>

    <!-- Yellow panels (top-right, bottom-left) -->
    <path d="M32 2 C30 14, 30 24, 32 32 C40 24, 50 18, 62 20 L62 2 Z" fill="#FFD100"/>
    <path d="M32 62 C34 50, 34 40, 32 32 C24 40, 14 46, 2 44 L2 62 Z" fill="#FFD100"/>

    <!-- Seam lines -->
    <g fill="none" stroke="#222" stroke-width="1.6" stroke-linecap="round">
      <path d="M32 2 C30 14, 30 24, 32 32 C34 42, 34 50, 32 62"/>
      <path d="M2 20 C14 18, 24 24, 32 32 C40 40, 50 46, 62 44"/>
      <path d="M62 20 C50 18, 40 24, 32 32 C24 40, 14 46, 2 44"/>
    </g>
  </g>

  <!-- Outline -->
  <circle cx="32" cy="32" r="30" fill="none" stroke="#888" stroke-width="0.6"/>

  <!-- Gloss highlight -->
  <ellipse cx="25" cy="20" rx="15" ry="9" fill="white" fill-opacity="0.25" transform="rotate(-30, 22, 20)"/>
</svg>
